<svg xmlns="http://www.w3.org/2000/svg" version="1.1" xmlns:xlink="http://www.w3.org/1999/xlink" xmlns:svgjs="http://svgjs.dev/svgjs" width="24px" height="24px"><svg class="monogram" width="24px" height="24px" viewBox="0 0 24 24" version="1.1" xmlns="http://www.w3.org/2000/svg" xmlns:xlink="http://www.w3.org/1999/xlink" fill="#000000">
    <g id="SvgjsG1021" stroke="none" stroke-width="1" fill-rule="evenodd">
        <g id="SvgjsG1020" transform="translate(-11.000000, -8.000000)">
            <g id="SvgjsG1019" transform="translate(-442.000000, -83.000000)">
                <g id="SvgjsG1018" transform="translate(442.000000, 83.000000)">
                    <g transform="translate(11.000000, 8.000000)">
                        <path d="M1.17418415,8.7086756 L8.03772957,8.7086756 L8.03772957,11.0845182 C8.03772957,11.6676923 7.56497357,12.1404483 6.9817995,12.1404483 L0.118254083,12.1404483 L0.118254083,9.76460566 C0.118254083,9.18143159 0.591010076,8.7086756 1.17418415,8.7086756 Z" id="SvgjsPath1017" transform="translate(4.077992, 10.424562) rotate(-45.000000) translate(-4.077992, -10.424562) "></path>
                        <path d="M4.34746921,11.8819607 L11.2110146,11.8819607 L11.2110146,14.2578033 C11.2110146,14.8409774 10.7382586,15.3137334 10.1550846,15.3137334 L3.29153915,15.3137334 L3.29153915,12.9378907 C3.29153915,12.3547167 3.76429514,11.8819607 4.34746921,11.8819607 Z" id="SvgjsPath1016" transform="translate(7.251277, 13.597847) rotate(-45.000000) translate(-7.251277, -13.597847) "></path>
                        <path d="M9.1073968,1.70489661 L14.9150122,1.70489661 C15.4981862,1.70489661 15.9709422,2.17765261 15.9709422,2.76082668 L15.9709422,8.56844203 C15.9709422,9.1516161 15.4981862,9.6243721 14.9150122,9.6243721 L9.1073968,9.6243721 C8.52422273,9.6243721 8.05146674,9.1516161 8.05146674,8.56844203 L8.05146674,2.76082668 C8.05146674,2.17765261 8.52422273,1.70489661 9.1073968,1.70489661 Z" id="SvgjsPath1015" transform="translate(12.011204, 5.664634) rotate(-45.000000) translate(-12.011204, -5.664634) "></path>
                        <path d="M8.05146674,14.3980369 L14.9150122,14.3980369 C15.4981862,14.3980369 15.9709422,14.8707929 15.9709422,15.4539669 L15.9709422,21.2615823 C15.9709422,21.8447564 15.4981862,22.3175123 14.9150122,22.3175123 L8.05146674,22.3175123 L8.05146674,14.3980369 Z" id="SvgjsPath1014" transform="translate(12.011204, 18.357775) rotate(-45.000000) translate(-12.011204, -18.357775) "></path>
                        <path d="M15.4539669,8.05146674 L22.3175123,8.05146674 L22.3175123,15.9709422 L14.3980369,15.9709422 L14.3980369,9.1073968 C14.3980369,8.52422273 14.8707929,8.05146674 15.4539669,8.05146674 Z" id="SvgjsPath1013" transform="translate(18.357775, 12.011204) rotate(-45.000000) translate(-18.357775, -12.011204) "></path>
                    </g>
                </g>
            </g>
        </g>
    </g>
</svg><style>@media (prefers-color-scheme: light) { :root { filter: none; } }
@media (prefers-color-scheme: dark) { :root { filter: invert(100%); } }
</style></svg>