<svg width="40px" height="40px" viewBox="0 0 40 40" version="1.1" xmlns="http://www.w3.org/2000/svg" xmlns:xlink="http://www.w3.org/1999/xlink">
    <g stroke="none" stroke-width="1" fill="none" fill-rule="evenodd">
        <g class="connect-icon" transform="translate(-12.000000, -9.000000)" fill="#0a0a0a">
            <g transform="translate(12.000000, 9.000000)">
                <path d="M20,0 C31.045695,0 40,8.954305 40,20 C40,31.045695 31.045695,40 20,40 C8.954305,40 0,31.045695 0,20 C0,8.954305 8.954305,0 20,0 Z M28.8309859,11 L11.1690141,11 C10.5837216,11 10.075902,11.2153975 9.64553991,11.6461988 C9.21517782,12.0770002 9,12.5740713 9,13.1374269 L9,13.1374269 L9,25.8625731 C9,26.4259287 9.21517782,26.9229998 9.64553991,27.3538012 C10.075902,27.7846025 10.5837216,28 11.1690141,28 L11.1690141,28 L28.8309859,28 C29.4162784,28 29.924098,27.7846025 30.3544601,27.3538012 C30.7848222,26.9229998 31,26.4259287 31,25.8625731 L31,25.8625731 L31,13.1374269 C31,12.5740713 30.7848222,12.0770002 30.3544601,11.6461988 C29.924098,11.2153975 29.4162784,11 28.8309859,11 L28.8309859,11 Z M28.8309859,13.1374269 L28.8309859,15.2748538 L20,20.5438596 L11.1690141,15.2748538 L11.1690141,13.1374269 L20,18.4561404 L28.8309859,13.1374269 Z" id="Combined-Shape"></path>
            </g>
        </g>
    </g>
</svg>