<svg width="40px" height="40px" viewBox="0 0 40 40" version="1.1" xmlns="http://www.w3.org/2000/svg" xmlns:xlink="http://www.w3.org/1999/xlink">
    <g class="connect-icon" stroke="none" stroke-width="1" fill-rule="evenodd" fill="#0A0A0A">
        <path d="M20,0 C31.045695,0 40,8.954305 40,20 C40,31.045695 31.045695,40 20,40 C8.954305,40 0,31.045695 0,20 C0,8.954305 8.954305,0 20,0 Z M29.3725659,9 L10.6225451,9 L10.47498,9.00648184 C9.64868228,9.07941427 9,9.75879629 9,10.5864444 L9,10.5864444 L9,29.4123333 L9.00663784,29.5567674 C9.08132342,30.3655083 9.77698146,31 10.6225451,31 L10.6225451,31 L29.3725659,31 L29.5204472,30.9935073 C30.3485921,30.9204537 31,30.2399815 31,29.4123333 L31,29.4123333 L31,10.5864444 L30.9933346,10.4420212 C30.9183408,9.63340158 30.219861,9 29.3725659,9 L29.3725659,9 Z M23.8326898,16.9872222 C27.1370594,16.9872222 27.7475763,19.1609444 27.7475763,21.9885556 L27.7475763,21.9885556 L27.7475763,27.7464444 L24.4847635,27.7464444 L24.4846096,22.5089345 C24.48117,21.3133986 24.4041819,19.857 22.7894942,19.857 C21.0911692,19.857 20.8320509,21.1837222 20.8320509,22.5538333 L20.8320509,22.5538333 L20.8320509,27.7464444 L17.5729048,27.7464444 L17.5729048,17.2475556 L20.7006584,17.2475556 L20.7006584,18.6830556 L20.7458818,18.6830556 L20.8158579,18.5589937 C21.2887698,17.7725977 22.3249452,16.9872222 23.8326898,16.9872222 Z M15.5262368,17.2475556 L15.5262368,27.7464444 L12.2597572,27.7464444 L12.2597572,17.2475556 L15.5262368,17.2475556 Z M13.8939137,12.0286667 C14.9377205,12.0286667 15.784744,12.8762778 15.784744,13.9206667 C15.784744,14.9656667 14.9377205,15.8132778 13.8939137,15.8132778 C12.8458291,15.8132778 12.0006389,14.9656667 12.0006389,13.9206667 C12.0006389,12.8762778 12.8458291,12.0286667 13.8939137,12.0286667 Z"></path>
    </g>
</svg>