<svg width="40" height="40" viewBox="0 0 40 40" fill="none" xmlns="http://www.w3.org/2000/svg">
<g class="connect-icon" fill="#0a0a0a">
<path d="M17.8667 0.146672C10.8395 0.880005 4.56053 5.5064 1.70613 12.0533C-0.133333 16.28 -0.439467 21.1467 0.866667 25.6269C2.48 31.2133 6.65333 35.9331 12.0533 38.2936C16.28 40.1331 21.1467 40.4392 25.6272 39.1331C32.3333 37.1997 37.6136 31.6936 39.3469 24.8531C42.0531 14.1333 35.4133 3.17254 24.6667 0.613338C22.3061 0.0533382 20.2272 -0.0935951 17.8667 0.146672ZM18.1333 12.5333C19.8395 14.8 21.28 16.6667 21.3333 16.6667C21.3867 16.6667 23.1605 14.8 25.2533 12.5333L29.08 8.4H31.2533L30.7867 8.89387C30.52 9.1728 28.7867 11.0531 26.9333 13.0667C25.08 15.08 23.2667 17.0395 22.9061 17.4L22.2667 18.08L27.2667 24.7333C30.0133 28.4 32.2667 31.4395 32.2667 31.4939C32.2667 31.5605 30.6272 31.6 28.6395 31.6L25 31.5867L21.6133 27.0533C19.28 23.92 18.1867 22.5725 18.08 22.6533C18 22.72 16.1061 24.7605 13.8667 27.1867L9.8 31.6H8.7728C8.2 31.6 7.73333 31.5728 7.73333 31.5333C7.73333 31.4939 9.85333 29.1728 12.4395 26.3867C15.0136 23.6 17.1469 21.2667 17.1728 21.2272C17.1867 21.1728 15.0667 18.28 12.4667 14.8C9.86667 11.3333 7.73333 8.46667 7.73333 8.43947C7.73333 8.4136 9.3728 8.4 11.3867 8.4H15.0395L18.1333 12.5333Z"/>
<path d="M11.0272 10.1867C11.0803 10.28 14.4395 14.7867 18.4667 20.1728L25.8 29.9864L27.4395 30C28.4531 30 29.0667 29.9467 29.0395 29.8667C29.0272 29.8 25.6803 25.2939 21.6272 19.8667L14.2395 10H12.5867C11.2139 10 10.9333 10.0272 11.0272 10.1867Z" fill="black"/>
</g>
</svg>
